<svg xmlns="http://www.w3.org/2000/svg" viewBox="0 0 1024 1024" fill="currentColor">
<g transform="translate(0.000000,1024.000000) scale(0.100000,-0.100000)">
<path d="M5066 9260 c-120 -21 -224 -100 -275 -209 l-26 -56 -5 -2800 c-4
-2313 -8 -2807 -19 -2840 -26 -78 -65 -142 -192 -315 -191 -260 -236 -303
-355 -340 -65 -20 -89 -20 -1245 -20 -1299 0 -1228 -3 -1269 62 -33 52 -22 80
123 326 73 125 155 265 182 311 68 118 113 171 180 210 97 58 122 61 721 61
532 0 542 0 568 21 47 37 39 62 -81 248 -220 337 -745 1156 -915 1426 -107
171 -262 416 -343 545 -371 587 -455 725 -455 746 0 40 41 75 97 84 73 12 432
12 532 0 167 -19 272 -97 387 -286 34 -54 121 -205 194 -334 73 -129 161 -284
195 -345 80 -140 259 -462 405 -727 149 -270 159 -281 211 -239 l24 19 5 904
5 905 28 36 c52 69 63 71 342 77 281 6 285 7 349 82 58 68 57 53 54 814 l-3
700 -28 42 c-64 97 -202 110 -278 26 -14 -16 -138 -195 -274 -399 -349 -519
-342 -511 -460 -567 l-70 -33 -1225 -5 -1225 -5 -47 -22 c-157 -73 -239 -245
-192 -404 16 -56 34 -88 244 -434 70 -115 224 -372 342 -570 118 -198 287
-482 376 -632 210 -351 207 -344 207 -463 0 -123 18 -85 -377 -765 -889 -1530
-873 -1503 -894 -1571 -52 -174 53 -371 229 -431 49 -17 260 -18 4267 -21
2632 -1 4241 1 4284 7 172 24 304 146 324 299 12 89 -3 156 -57 257 -89 165
-782 1364 -1078 1863 -132 223 -144 252 -146 347 -1 96 19 149 120 318 91 150
327 551 551 932 74 127 180 307 235 400 255 431 267 456 267 555 0 112 -68
230 -167 291 -80 50 -58 49 -1308 49 -1260 0 -1236 -1 -1326 53 -81 47 -110
86 -464 611 -214 318 -237 349 -281 373 -90 52 -208 14 -252 -81 -22 -46 -22
-48 -22 -733 0 -746 0 -741 56 -803 79 -87 -46 -80 1385 -80 737 0 1281 -4
1304 -10 48 -11 85 -50 85 -90 0 -30 -318 -570 -368 -624 -65 -69 -7 -66
-1010 -66 -979 0 -964 1 -1031 -56 -74 -64 -81 -91 -81 -329 0 -237 7 -265 81
-328 67 -58 59 -57 778 -57 l662 0 24 -24 c56 -56 60 -48 -168 -419 -138 -225
-170 -266 -235 -305 l-47 -27 -460 -5 c-525 -6 -523 -5 -584 -91 -48 -65 -53
-96 -49 -305 l3 -191 30 -49 c19 -30 49 -60 79 -79 l49 -30 871 -5 871 -5 67
-33 c99 -49 139 -101 344 -451 196 -336 201 -348 164 -409 -40 -65 28 -62
-1253 -62 -738 0 -1184 4 -1218 10 -74 14 -165 61 -217 111 -45 44 -248 311
-314 413 -75 116 -69 -147 -71 2958 l-2 2793 -23 57 c-69 171 -240 268 -416
238z"/>
</g>
</svg>
